{"title":"Ocean's.Trilogy.BlurayMUX.1080p.VC-1.DD.5.1","uid":12025819,"size":48687159365,"categoryP":"video","categoryS":"hd___movies","magnet":"?xt=urn:btih:59784458f46402cfd6ce164c8041b7af3e981d2d&amp;dn=Ocean%27s.Trilogy.BlurayMUX.1080p.VC-1.DD.5.1&amp;tr=udp%3A%2F%2Ftracker.openbittorrent.com%3A80&amp;tr=udp%3A%2F%2Fopen.demonii.com%3A1337&amp;tr=udp%3A%2F%2Ftracker.coppersurfer.tk%3A6969&amp;tr=udp%3A%2F%2Fexodus.desync.com%3A6969","seeders":1,"leechers":0,"uploader":"cfiggis","files":3,"time":1434514809,"description":"This is a BlurayMUX of the following Bluray disk: Ocean's Trilogy\n\nThis trilogy is a collection of the following three movies:\n1) Ocean's Eleven (2001)\n2) Ocean's Twelve (2004)\n3) Ocean's Thirteen (2007)\n\n1) IMDB: http://www.imdb.com/title/tt0240772/\n\n2) IMDB: http://www.imdb.com/title/tt0349903/\n\n3) IMDB: http://www.imdb.com/title/tt0496806/\n\n\nThe content is a MUX, which means the audio.video streams are untouched, thus preserving the full, original quality of the content.\n\nBelow is a sample of the MediaInfo for the movie:\n\nGeneral\nFormat : Matroska\nFormat version : Version 2\nFile size : 15.1 GiB\nDuration : 2h 2mn\nOverall bit rate : 17.7 Mbps\nEncoded date : UTC 2015-06-13 06:33:07\nWriting application : MakeMKV v1.9.4 darwin(x86-release)\nWriting library : libmakemkv v1.9.4 (1.3.0/1.4.1) darwin(x86-release)\n\nVideo\nID : 1\nFormat : VC-1\nFormat profile : Advanced@L3\nCodec ID : V_MS/VFW/FOURCC / WVC1\nCodec ID/Hint : Microsoft\nDuration : 2h 2mn\nBit rate : 16.7 Mbps\nWidth : 1 920 pixels\nHeight : 1 080 pixels\nDisplay aspect ratio : 16:9\nFrame rate mode : Constant\nFrame rate : 23.976 fps\nColor space : YUV\nChroma subsampling : 4:2:0\nBit depth : 8 bits\nScan type : Progressive\nCompression mode : Lossy\nBits/(Pixel*Frame) : 0.336\nStream size : 14.2 GiB (94%)\nLanguage : English\nDefault : No\nForced : No\n\nAudio\nID : 2\nFormat : AC-3\nFormat/Info : Audio Coding 3\nMode extension : CM (complete main)\nFormat settings, Endianness : Big\nCodec ID : A_AC3\nDuration : 2h 2mn\nBit rate mode : Constant\nBit rate : 640 Kbps\nChannel(s) : 6 channels\nChannel positions : Front: L C R, Side: L R, LFE\nSampling rate : 48.0 KHz\nBit depth : 16 bits\nCompression mode : Lossy\nStream size : 559 MiB (4%)\nTitle : Surround 5.1\nLanguage : English\nDefault : Yes\nForced : No\n\nText #1\nID : 3\nFormat : PGS\nCodec ID : S_HDMV/PGS\nCodec ID/Info : Picture based subtitle format used on BDs/HD-DVDs\nLanguage : English\nDefault : No\nForced : No","torrent":{"xt":"urn:btih:59784458f46402cfd6ce164c8041b7af3e981d2d","amp;dn":"Ocean%27s.Trilogy.BlurayMUX.1080p.VC-1.DD.5.1","amp;tr":["udp%3A%2F%2Ftracker.openbittorrent.com%3A80","udp%3A%2F%2Fopen.demonii.com%3A1337","udp%3A%2F%2Ftracker.coppersurfer.tk%3A6969","udp%3A%2F%2Fexodus.desync.com%3A6969"],"infoHash":"59784458f46402cfd6ce164c8041b7af3e981d2d","infoHashBuffer":{"type":"Buffer","data":[89,120,68,88,244,100,2,207,214,206,22,76,128,65,183,175,62,152,29,45]},"announce":[],"urlList":[]}}